<svg xmlns="http://www.w3.org/2000/svg" version="1.1" xmlns:xlink="http://www.w3.org/1999/xlink" xmlns:svgjs="http://svgjs.dev/svgjs" viewBox="0 0 800 800" opacity="0.46" width="800" height="800"><g stroke-width="1.5" stroke="hsla(0, 0%, 100%, 1.00)" fill="none"><rect width="57.142857142857146" height="57.142857142857146" x="0" y="0"></rect><rect width="57.142857142857146" height="57.142857142857146" x="57.142857142857146" y="0"></rect><rect width="57.142857142857146" height="57.142857142857146" x="114.28571428571429" y="0"></rect><rect width="57.142857142857146" height="57.142857142857146" x="171.42857142857144" y="0"></rect><rect width="57.142857142857146" height="57.142857142857146" x="228.57142857142858" y="0"></rect><rect width="57.142857142857146" height="57.142857142857146" x="285.7142857142857" y="0"></rect><rect width="57.142857142857146" height="57.142857142857146" x="342.8571428571429" y="0"></rect><rect width="57.142857142857146" height="57.142857142857146" x="400.00000000000006" y="0"></rect><rect width="57.142857142857146" height="57.142857142857146" x="457.1428571428572" y="0"></rect><rect width="57.142857142857146" height="57.142857142857146" x="514.2857142857143" y="0"></rect><rect width="57.142857142857146" height="57.142857142857146" x="571.4285714285714" y="0"></rect><rect width="57.142857142857146" height="57.142857142857146" x="628.5714285714286" y="0"></rect><rect width="57.142857142857146" height="57.142857142857146" x="685.7142857142857" y="0"></rect><rect width="57.142857142857146" height="57.142857142857146" x="742.8571428571428" y="0"></rect><rect width="57.142857142857146" height="57.142857142857146" x="799.9999999999999" y="0"></rect><rect width="57.142857142857146" height="57.142857142857146" x="0" y="57.142857142857146"></rect><rect width="57.142857142857146" height="57.142857142857146" x="57.142857142857146" y="57.142857142857146"></rect><rect width="57.142857142857146" height="57.142857142857146" x="114.28571428571429" y="57.142857142857146"></rect><rect width="57.142857142857146" height="57.142857142857146" x="171.42857142857144" y="57.142857142857146"></rect><rect width="57.142857142857146" height="57.142857142857146" x="228.57142857142858" y="57.142857142857146"></rect><rect width="57.142857142857146" height="57.142857142857146" x="285.7142857142857" y="57.142857142857146"></rect><rect width="57.142857142857146" height="57.142857142857146" x="342.8571428571429" y="57.142857142857146"></rect><rect width="57.142857142857146" height="57.142857142857146" x="400.00000000000006" y="57.142857142857146"></rect><rect width="57.142857142857146" height="57.142857142857146" x="457.1428571428572" y="57.142857142857146"></rect><rect width="57.142857142857146" height="57.142857142857146" x="514.2857142857143" y="57.142857142857146"></rect><rect width="57.142857142857146" height="57.142857142857146" x="571.4285714285714" y="57.142857142857146"></rect><rect width="57.142857142857146" height="57.142857142857146" x="628.5714285714286" y="57.142857142857146"></rect><rect width="57.142857142857146" height="57.142857142857146" x="685.7142857142857" y="57.142857142857146"></rect><rect width="57.142857142857146" height="57.142857142857146" x="742.8571428571428" y="57.142857142857146"></rect><rect width="57.142857142857146" height="57.142857142857146" x="799.9999999999999" y="57.142857142857146"></rect><rect width="57.142857142857146" height="57.142857142857146" x="0" y="114.28571428571429"></rect><rect width="57.142857142857146" height="57.142857142857146" x="57.142857142857146" y="114.28571428571429"></rect><rect width="57.142857142857146" height="57.142857142857146" x="114.28571428571429" y="114.28571428571429"></rect><rect width="57.142857142857146" height="57.142857142857146" x="171.42857142857144" y="114.28571428571429"></rect><rect width="57.142857142857146" height="57.142857142857146" x="228.57142857142858" y="114.28571428571429"></rect><rect width="57.142857142857146" height="57.142857142857146" x="285.7142857142857" y="114.28571428571429"></rect><rect width="57.142857142857146" height="57.142857142857146" x="342.8571428571429" y="114.28571428571429"></rect><rect width="57.142857142857146" height="57.142857142857146" x="400.00000000000006" y="114.28571428571429"></rect><rect width="57.142857142857146" height="57.142857142857146" x="457.1428571428572" y="114.28571428571429"></rect><rect width="57.142857142857146" height="57.142857142857146" x="514.2857142857143" y="114.28571428571429"></rect><rect width="57.142857142857146" height="57.142857142857146" x="571.4285714285714" y="114.28571428571429"></rect><rect width="57.142857142857146" height="57.142857142857146" x="628.5714285714286" y="114.28571428571429"></rect><rect width="57.142857142857146" height="57.142857142857146" x="685.7142857142857" y="114.28571428571429"></rect><rect width="57.142857142857146" height="57.142857142857146" x="742.8571428571428" y="114.28571428571429"></rect><rect width="57.142857142857146" height="57.142857142857146" x="799.9999999999999" y="114.28571428571429"></rect><rect width="57.142857142857146" height="57.142857142857146" x="0" y="171.42857142857144"></rect><rect width="57.142857142857146" height="57.142857142857146" x="57.142857142857146" y="171.42857142857144"></rect><rect width="57.142857142857146" height="57.142857142857146" x="114.28571428571429" y="171.42857142857144"></rect><rect width="57.142857142857146" height="57.142857142857146" x="171.42857142857144" y="171.42857142857144"></rect><rect width="57.142857142857146" height="57.142857142857146" x="228.57142857142858" y="171.42857142857144"></rect><rect width="57.142857142857146" height="57.142857142857146" x="285.7142857142857" y="171.42857142857144"></rect><rect width="57.142857142857146" height="57.142857142857146" x="342.8571428571429" y="171.42857142857144"></rect><rect width="57.142857142857146" height="57.142857142857146" x="400.00000000000006" y="171.42857142857144"></rect><rect width="57.142857142857146" height="57.142857142857146" x="457.1428571428572" y="171.42857142857144"></rect><rect width="57.142857142857146" height="57.142857142857146" x="514.2857142857143" y="171.42857142857144"></rect><rect width="57.142857142857146" height="57.142857142857146" x="571.4285714285714" y="171.42857142857144"></rect><rect width="57.142857142857146" height="57.142857142857146" x="628.5714285714286" y="171.42857142857144"></rect><rect width="57.142857142857146" height="57.142857142857146" x="685.7142857142857" y="171.42857142857144"></rect><rect width="57.142857142857146" height="57.142857142857146" x="742.8571428571428" y="171.42857142857144"></rect><rect width="57.142857142857146" height="57.142857142857146" x="799.9999999999999" y="171.42857142857144"></rect><rect width="57.142857142857146" height="57.142857142857146" x="0" y="228.57142857142858"></rect><rect width="57.142857142857146" height="57.142857142857146" x="57.142857142857146" y="228.57142857142858"></rect><rect width="57.142857142857146" height="57.142857142857146" x="114.28571428571429" y="228.57142857142858"></rect><rect width="57.142857142857146" height="57.142857142857146" x="171.42857142857144" y="228.57142857142858"></rect><rect width="57.142857142857146" height="57.142857142857146" x="228.57142857142858" y="228.57142857142858"></rect><rect width="57.142857142857146" height="57.142857142857146" x="285.7142857142857" y="228.57142857142858"></rect><rect width="57.142857142857146" height="57.142857142857146" x="342.8571428571429" y="228.57142857142858"></rect><rect width="57.142857142857146" height="57.142857142857146" x="400.00000000000006" y="228.57142857142858"></rect><rect width="57.142857142857146" height="57.142857142857146" x="457.1428571428572" y="228.57142857142858"></rect><rect width="57.142857142857146" height="57.142857142857146" x="514.2857142857143" y="228.57142857142858"></rect><rect width="57.142857142857146" height="57.142857142857146" x="571.4285714285714" y="228.57142857142858"></rect><rect width="57.142857142857146" height="57.142857142857146" x="628.5714285714286" y="228.57142857142858"></rect><rect width="57.142857142857146" height="57.142857142857146" x="685.7142857142857" y="228.57142857142858"></rect><rect width="57.142857142857146" height="57.142857142857146" x="742.8571428571428" y="228.57142857142858"></rect><rect width="57.142857142857146" height="57.142857142857146" x="799.9999999999999" y="228.57142857142858"></rect><rect width="57.142857142857146" height="57.142857142857146" x="0" y="285.7142857142857"></rect><rect width="57.142857142857146" height="57.142857142857146" x="57.142857142857146" y="285.7142857142857"></rect><rect width="57.142857142857146" height="57.142857142857146" x="114.28571428571429" y="285.7142857142857"></rect><rect width="57.142857142857146" height="57.142857142857146" x="171.42857142857144" y="285.7142857142857"></rect><rect width="57.142857142857146" height="57.142857142857146" x="228.57142857142858" y="285.7142857142857"></rect><rect width="57.142857142857146" height="57.142857142857146" x="285.7142857142857" y="285.7142857142857"></rect><rect width="57.142857142857146" height="57.142857142857146" x="342.8571428571429" y="285.7142857142857"></rect><rect width="57.142857142857146" height="57.142857142857146" x="400.00000000000006" y="285.7142857142857"></rect><rect width="57.142857142857146" height="57.142857142857146" x="457.1428571428572" y="285.7142857142857"></rect><rect width="57.142857142857146" height="57.142857142857146" x="514.2857142857143" y="285.7142857142857"></rect><rect width="57.142857142857146" height="57.142857142857146" x="571.4285714285714" y="285.7142857142857"></rect><rect width="57.142857142857146" height="57.142857142857146" x="628.5714285714286" y="285.7142857142857"></rect><rect width="57.142857142857146" height="57.142857142857146" x="685.7142857142857" y="285.7142857142857"></rect><rect width="57.142857142857146" height="57.142857142857146" x="742.8571428571428" y="285.7142857142857"></rect><rect width="57.142857142857146" height="57.142857142857146" x="799.9999999999999" y="285.7142857142857"></rect><rect width="57.142857142857146" height="57.142857142857146" x="0" y="342.8571428571429"></rect><rect width="57.142857142857146" height="57.142857142857146" x="57.142857142857146" y="342.8571428571429"></rect><rect width="57.142857142857146" height="57.142857142857146" x="114.28571428571429" y="342.8571428571429"></rect><rect width="57.142857142857146" height="57.142857142857146" x="171.42857142857144" y="342.8571428571429"></rect><rect width="57.142857142857146" height="57.142857142857146" x="228.57142857142858" y="342.8571428571429"></rect><rect width="57.142857142857146" height="57.142857142857146" x="285.7142857142857" y="342.8571428571429"></rect><rect width="57.142857142857146" height="57.142857142857146" x="342.8571428571429" y="342.8571428571429"></rect><rect width="57.142857142857146" height="57.142857142857146" x="400.00000000000006" y="342.8571428571429"></rect><rect width="57.142857142857146" height="57.142857142857146" x="457.1428571428572" y="342.8571428571429"></rect><rect width="57.142857142857146" height="57.142857142857146" x="514.2857142857143" y="342.8571428571429"></rect><rect width="57.142857142857146" height="57.142857142857146" x="571.4285714285714" y="342.8571428571429"></rect><rect width="57.142857142857146" height="57.142857142857146" x="628.5714285714286" y="342.8571428571429"></rect><rect width="57.142857142857146" height="57.142857142857146" x="685.7142857142857" y="342.8571428571429"></rect><rect width="57.142857142857146" height="57.142857142857146" x="742.8571428571428" y="342.8571428571429"></rect><rect width="57.142857142857146" height="57.142857142857146" x="799.9999999999999" y="342.8571428571429"></rect><rect width="57.142857142857146" height="57.142857142857146" x="0" y="400.00000000000006"></rect><rect width="57.142857142857146" height="57.142857142857146" x="57.142857142857146" y="400.00000000000006"></rect><rect width="57.142857142857146" height="57.142857142857146" x="114.28571428571429" y="400.00000000000006"></rect><rect width="57.142857142857146" height="57.142857142857146" x="171.42857142857144" y="400.00000000000006"></rect><rect width="57.142857142857146" height="57.142857142857146" x="228.57142857142858" y="400.00000000000006"></rect><rect width="57.142857142857146" height="57.142857142857146" x="285.7142857142857" y="400.00000000000006"></rect><rect width="57.142857142857146" height="57.142857142857146" x="342.8571428571429" y="400.00000000000006"></rect><rect width="57.142857142857146" height="57.142857142857146" x="400.00000000000006" y="400.00000000000006"></rect><rect width="57.142857142857146" height="57.142857142857146" x="457.1428571428572" y="400.00000000000006"></rect><rect width="57.142857142857146" height="57.142857142857146" x="514.2857142857143" y="400.00000000000006"></rect><rect width="57.142857142857146" height="57.142857142857146" x="571.4285714285714" y="400.00000000000006"></rect><rect width="57.142857142857146" height="57.142857142857146" x="628.5714285714286" y="400.00000000000006"></rect><rect width="57.142857142857146" height="57.142857142857146" x="685.7142857142857" y="400.00000000000006"></rect><rect width="57.142857142857146" height="57.142857142857146" x="742.8571428571428" y="400.00000000000006"></rect><rect width="57.142857142857146" height="57.142857142857146" x="799.9999999999999" y="400.00000000000006"></rect><rect width="57.142857142857146" height="57.142857142857146" x="0" y="457.1428571428572"></rect><rect width="57.142857142857146" height="57.142857142857146" x="57.142857142857146" y="457.1428571428572"></rect><rect width="57.142857142857146" height="57.142857142857146" x="114.28571428571429" y="457.1428571428572"></rect><rect width="57.142857142857146" height="57.142857142857146" x="171.42857142857144" y="457.1428571428572"></rect><rect width="57.142857142857146" height="57.142857142857146" x="228.57142857142858" y="457.1428571428572"></rect><rect width="57.142857142857146" height="57.142857142857146" x="285.7142857142857" y="457.1428571428572"></rect><rect width="57.142857142857146" height="57.142857142857146" x="342.8571428571429" y="457.1428571428572"></rect><rect width="57.142857142857146" height="57.142857142857146" x="400.00000000000006" y="457.1428571428572"></rect><rect width="57.142857142857146" height="57.142857142857146" x="457.1428571428572" y="457.1428571428572"></rect><rect width="57.142857142857146" height="57.142857142857146" x="514.2857142857143" y="457.1428571428572"></rect><rect width="57.142857142857146" height="57.142857142857146" x="571.4285714285714" y="457.1428571428572"></rect><rect width="57.142857142857146" height="57.142857142857146" x="628.5714285714286" y="457.1428571428572"></rect><rect width="57.142857142857146" height="57.142857142857146" x="685.7142857142857" y="457.1428571428572"></rect><rect width="57.142857142857146" height="57.142857142857146" x="742.8571428571428" y="457.1428571428572"></rect><rect width="57.142857142857146" height="57.142857142857146" x="799.9999999999999" y="457.1428571428572"></rect><rect width="57.142857142857146" height="57.142857142857146" x="0" y="514.2857142857143"></rect><rect width="57.142857142857146" height="57.142857142857146" x="57.142857142857146" y="514.2857142857143"></rect><rect width="57.142857142857146" height="57.142857142857146" x="114.28571428571429" y="514.2857142857143"></rect><rect width="57.142857142857146" height="57.142857142857146" x="171.42857142857144" y="514.2857142857143"></rect><rect width="57.142857142857146" height="57.142857142857146" x="228.57142857142858" y="514.2857142857143"></rect><rect width="57.142857142857146" height="57.142857142857146" x="285.7142857142857" y="514.2857142857143"></rect><rect width="57.142857142857146" height="57.142857142857146" x="342.8571428571429" y="514.2857142857143"></rect><rect width="57.142857142857146" height="57.142857142857146" x="400.00000000000006" y="514.2857142857143"></rect><rect width="57.142857142857146" height="57.142857142857146" x="457.1428571428572" y="514.2857142857143"></rect><rect width="57.142857142857146" height="57.142857142857146" x="514.2857142857143" y="514.2857142857143"></rect><rect width="57.142857142857146" height="57.142857142857146" x="571.4285714285714" y="514.2857142857143"></rect><rect width="57.142857142857146" height="57.142857142857146" x="628.5714285714286" y="514.2857142857143"></rect><rect width="57.142857142857146" height="57.142857142857146" x="685.7142857142857" y="514.2857142857143"></rect><rect width="57.142857142857146" height="57.142857142857146" x="742.8571428571428" y="514.2857142857143"></rect><rect width="57.142857142857146" height="57.142857142857146" x="799.9999999999999" y="514.2857142857143"></rect><rect width="57.142857142857146" height="57.142857142857146" x="0" y="571.4285714285714"></rect><rect width="57.142857142857146" height="57.142857142857146" x="57.142857142857146" y="571.4285714285714"></rect><rect width="57.142857142857146" height="57.142857142857146" x="114.28571428571429" y="571.4285714285714"></rect><rect width="57.142857142857146" height="57.142857142857146" x="171.42857142857144" y="571.4285714285714"></rect><rect width="57.142857142857146" height="57.142857142857146" x="228.57142857142858" y="571.4285714285714"></rect><rect width="57.142857142857146" height="57.142857142857146" x="285.7142857142857" y="571.4285714285714"></rect><rect width="57.142857142857146" height="57.142857142857146" x="342.8571428571429" y="571.4285714285714"></rect><rect width="57.142857142857146" height="57.142857142857146" x="400.00000000000006" y="571.4285714285714"></rect><rect width="57.142857142857146" height="57.142857142857146" x="457.1428571428572" y="571.4285714285714"></rect><rect width="57.142857142857146" height="57.142857142857146" x="514.2857142857143" y="571.4285714285714"></rect><rect width="57.142857142857146" height="57.142857142857146" x="571.4285714285714" y="571.4285714285714"></rect><rect width="57.142857142857146" height="57.142857142857146" x="628.5714285714286" y="571.4285714285714"></rect><rect width="57.142857142857146" height="57.142857142857146" x="685.7142857142857" y="571.4285714285714"></rect><rect width="57.142857142857146" height="57.142857142857146" x="742.8571428571428" y="571.4285714285714"></rect><rect width="57.142857142857146" height="57.142857142857146" x="799.9999999999999" y="571.4285714285714"></rect><rect width="57.142857142857146" height="57.142857142857146" x="0" y="628.5714285714286"></rect><rect width="57.142857142857146" height="57.142857142857146" x="57.142857142857146" y="628.5714285714286"></rect><rect width="57.142857142857146" height="57.142857142857146" x="114.28571428571429" y="628.5714285714286"></rect><rect width="57.142857142857146" height="57.142857142857146" x="171.42857142857144" y="628.5714285714286"></rect><rect width="57.142857142857146" height="57.142857142857146" x="228.57142857142858" y="628.5714285714286"></rect><rect width="57.142857142857146" height="57.142857142857146" x="285.7142857142857" y="628.5714285714286"></rect><rect width="57.142857142857146" height="57.142857142857146" x="342.8571428571429" y="628.5714285714286"></rect><rect width="57.142857142857146" height="57.142857142857146" x="400.00000000000006" y="628.5714285714286"></rect><rect width="57.142857142857146" height="57.142857142857146" x="457.1428571428572" y="628.5714285714286"></rect><rect width="57.142857142857146" height="57.142857142857146" x="514.2857142857143" y="628.5714285714286"></rect><rect width="57.142857142857146" height="57.142857142857146" x="571.4285714285714" y="628.5714285714286"></rect><rect width="57.142857142857146" height="57.142857142857146" x="628.5714285714286" y="628.5714285714286"></rect><rect width="57.142857142857146" height="57.142857142857146" x="685.7142857142857" y="628.5714285714286"></rect><rect width="57.142857142857146" height="57.142857142857146" x="742.8571428571428" y="628.5714285714286"></rect><rect width="57.142857142857146" height="57.142857142857146" x="799.9999999999999" y="628.5714285714286"></rect><rect width="57.142857142857146" height="57.142857142857146" x="0" y="685.7142857142857"></rect><rect width="57.142857142857146" height="57.142857142857146" x="57.142857142857146" y="685.7142857142857"></rect><rect width="57.142857142857146" height="57.142857142857146" x="114.28571428571429" y="685.7142857142857"></rect><rect width="57.142857142857146" height="57.142857142857146" x="171.42857142857144" y="685.7142857142857"></rect><rect width="57.142857142857146" height="57.142857142857146" x="228.57142857142858" y="685.7142857142857"></rect><rect width="57.142857142857146" height="57.142857142857146" x="285.7142857142857" y="685.7142857142857"></rect><rect width="57.142857142857146" height="57.142857142857146" x="342.8571428571429" y="685.7142857142857"></rect><rect width="57.142857142857146" height="57.142857142857146" x="400.00000000000006" y="685.7142857142857"></rect><rect width="57.142857142857146" height="57.142857142857146" x="457.1428571428572" y="685.7142857142857"></rect><rect width="57.142857142857146" height="57.142857142857146" x="514.2857142857143" y="685.7142857142857"></rect><rect width="57.142857142857146" height="57.142857142857146" x="571.4285714285714" y="685.7142857142857"></rect><rect width="57.142857142857146" height="57.142857142857146" x="628.5714285714286" y="685.7142857142857"></rect><rect width="57.142857142857146" height="57.142857142857146" x="685.7142857142857" y="685.7142857142857"></rect><rect width="57.142857142857146" height="57.142857142857146" x="742.8571428571428" y="685.7142857142857"></rect><rect width="57.142857142857146" height="57.142857142857146" x="799.9999999999999" y="685.7142857142857"></rect><rect width="57.142857142857146" height="57.142857142857146" x="0" y="742.8571428571428"></rect><rect width="57.142857142857146" height="57.142857142857146" x="57.142857142857146" y="742.8571428571428"></rect><rect width="57.142857142857146" height="57.142857142857146" x="114.28571428571429" y="742.8571428571428"></rect><rect width="57.142857142857146" height="57.142857142857146" x="171.42857142857144" y="742.8571428571428"></rect><rect width="57.142857142857146" height="57.142857142857146" x="228.57142857142858" y="742.8571428571428"></rect><rect width="57.142857142857146" height="57.142857142857146" x="285.7142857142857" y="742.8571428571428"></rect><rect width="57.142857142857146" height="57.142857142857146" x="342.8571428571429" y="742.8571428571428"></rect><rect width="57.142857142857146" height="57.142857142857146" x="400.00000000000006" y="742.8571428571428"></rect><rect width="57.142857142857146" height="57.142857142857146" x="457.1428571428572" y="742.8571428571428"></rect><rect width="57.142857142857146" height="57.142857142857146" x="514.2857142857143" y="742.8571428571428"></rect><rect width="57.142857142857146" height="57.142857142857146" x="571.4285714285714" y="742.8571428571428"></rect><rect width="57.142857142857146" height="57.142857142857146" x="628.5714285714286" y="742.8571428571428"></rect><rect width="57.142857142857146" height="57.142857142857146" x="685.7142857142857" y="742.8571428571428"></rect><rect width="57.142857142857146" height="57.142857142857146" x="742.8571428571428" y="742.8571428571428"></rect><rect width="57.142857142857146" height="57.142857142857146" x="799.9999999999999" y="742.8571428571428"></rect><rect width="57.142857142857146" height="57.142857142857146" x="0" y="799.9999999999999"></rect><rect width="57.142857142857146" height="57.142857142857146" x="57.142857142857146" y="799.9999999999999"></rect><rect width="57.142857142857146" height="57.142857142857146" x="114.28571428571429" y="799.9999999999999"></rect><rect width="57.142857142857146" height="57.142857142857146" x="171.42857142857144" y="799.9999999999999"></rect><rect width="57.142857142857146" height="57.142857142857146" x="228.57142857142858" y="799.9999999999999"></rect><rect width="57.142857142857146" height="57.142857142857146" x="285.7142857142857" y="799.9999999999999"></rect><rect width="57.142857142857146" height="57.142857142857146" x="342.8571428571429" y="799.9999999999999"></rect><rect width="57.142857142857146" height="57.142857142857146" x="400.00000000000006" y="799.9999999999999"></rect><rect width="57.142857142857146" height="57.142857142857146" x="457.1428571428572" y="799.9999999999999"></rect><rect width="57.142857142857146" height="57.142857142857146" x="514.2857142857143" y="799.9999999999999"></rect><rect width="57.142857142857146" height="57.142857142857146" x="571.4285714285714" y="799.9999999999999"></rect><rect width="57.142857142857146" height="57.142857142857146" x="628.5714285714286" y="799.9999999999999"></rect><rect width="57.142857142857146" height="57.142857142857146" x="685.7142857142857" y="799.9999999999999"></rect><rect width="57.142857142857146" height="57.142857142857146" x="742.8571428571428" y="799.9999999999999"></rect><rect width="57.142857142857146" height="57.142857142857146" x="799.9999999999999" y="799.9999999999999"></rect></g></svg>